<svg width="28" height="22" viewBox="0 0 28 22" fill="none" xmlns="http://www.w3.org/2000/svg">
<path d="M2.81787 14.1101C2.81787 13.7318 2.75451 13.3899 2.6278 13.0843C2.50105 12.7715 2.32214 12.5059 2.09105 12.2877C1.86741 12.0694 1.59531 11.9021 1.27476 11.7857C0.961659 11.662 0.618742 11.6002 0.246006 11.6002H0V10.3998H0.369008C0.726834 10.3852 1.05484 10.3161 1.35303 10.1925C1.65122 10.0688 1.90841 9.89782 2.1246 9.67956C2.34077 9.46131 2.50852 9.20304 2.6278 8.90477C2.75451 8.59919 2.81787 8.2609 2.81787 7.88988V3.85217C2.81787 3.292 2.9148 2.77911 3.10862 2.31348C3.30991 1.84061 3.58572 1.4332 3.93611 1.09127C4.29393 0.749338 4.7114 0.483795 5.1885 0.294644C5.67304 0.0982131 6.19487 0 6.75397 0H6.8658V1.21131H6.75397C6.38125 1.21131 6.03831 1.27315 5.72524 1.39682C5.41212 1.51323 5.14003 1.68055 4.90894 1.89881C4.6853 2.11706 4.51011 2.3826 4.38339 2.69544C4.25665 3.001 4.19329 3.33928 4.19329 3.7103V7.75893C4.19329 8.46461 4.03301 9.10119 3.71244 9.66865C3.39937 10.2361 2.97816 10.6799 2.44888 11C2.97816 11.3346 3.39937 11.7821 3.71244 12.3423C4.03301 12.9024 4.19329 13.5354 4.19329 14.2411V18.2897C4.19329 18.6607 4.25665 18.999 4.38339 19.3045C4.51011 19.6174 4.6853 19.8829 4.90894 20.1012C5.14003 20.3194 5.41212 20.4868 5.72524 20.6032C6.03831 20.7268 6.38125 20.7887 6.75397 20.7887H6.8658V22H6.75397C6.19487 22 5.67304 21.9018 5.1885 21.7053C4.7114 21.5162 4.29393 21.2507 3.93611 20.9087C3.58572 20.5668 3.30991 20.1594 3.10862 19.6865C2.9148 19.2209 2.81787 18.708 2.81787 18.1478V14.1101ZM12.5687 17.5258V9.34128C12.5687 9.07208 12.5165 8.8211 12.4121 8.5883C12.3077 8.3482 12.1661 8.14087 11.9872 7.96627C11.8083 7.79166 11.5958 7.65345 11.3498 7.55157C11.1113 7.44974 10.8541 7.39881 10.5783 7.39881H9.66133C9.3855 7.39881 9.12459 7.44974 8.87858 7.55157C8.64002 7.65345 8.43129 7.79166 8.25238 7.96627C8.07346 8.14087 7.93184 8.3482 7.82745 8.5883C7.7231 8.8211 7.67091 9.07208 7.67091 9.34128V17.5258H6.29552V6.35119H6.75397L7.50319 7.48611C7.81628 7.07144 8.20765 6.74404 8.67731 6.50395C9.15441 6.25662 9.6725 6.13293 10.2316 6.13293H10.5783C11.0404 6.13293 11.4765 6.22024 11.8866 6.39484C12.2966 6.56215 12.6544 6.79496 12.96 7.09325C13.2657 7.39154 13.5042 7.74075 13.6757 8.14087C13.8546 8.54099 13.9441 8.9666 13.9441 9.41766V17.5258H12.5687ZM20.3067 13.881H15.23L14.1789 17.5258H12.6805L17.377 1.87698H18.1373L22.8562 17.5258H21.369L20.3067 13.881ZM15.6214 12.5387H19.9265L17.8131 5.32541L17.7683 4.74703L17.7236 5.32541L15.6214 12.5387ZM25.182 18.1478C25.182 18.708 25.0813 19.2209 24.8802 19.6865C24.6863 20.1594 24.4105 20.5668 24.0527 20.9087C23.7023 21.2507 23.2848 21.5162 22.8003 21.7053C22.3232 21.9018 21.8051 22 21.2459 22H21.1341V20.7887H21.2459C21.6187 20.7887 21.9616 20.7268 22.2747 20.6032C22.5878 20.4868 22.8599 20.3194 23.091 20.1012C23.3221 19.8829 23.501 19.6174 23.6277 19.3045C23.7545 18.999 23.818 18.6607 23.818 18.2897V14.2411C23.818 13.5354 23.9706 12.9024 24.2762 12.3423C24.5894 11.7821 25.0143 11.3346 25.551 11C25.0143 10.6726 24.5894 10.2288 24.2762 9.66865C23.9706 9.10119 23.818 8.46461 23.818 7.75893V3.7103C23.818 3.33928 23.7545 3.001 23.6277 2.69544C23.501 2.3826 23.3221 2.11706 23.091 1.89881C22.8599 1.68055 22.5878 1.51323 22.2747 1.39682C21.9616 1.27315 21.6187 1.21131 21.2459 1.21131H21.1341V0H21.2459C21.8051 0 22.3232 0.0982131 22.8003 0.294644C23.2848 0.483795 23.7023 0.749338 24.0527 1.09127C24.4105 1.4332 24.6863 1.84061 24.8802 2.31348C25.0813 2.77911 25.182 3.292 25.182 3.85217V7.88988C25.182 8.26819 25.2455 8.61376 25.3721 8.92658C25.4988 9.23214 25.6777 9.49404 25.9089 9.7123C26.14 9.93055 26.412 10.1015 26.7252 10.2252C27.0384 10.3416 27.3812 10.3998 27.7541 10.3998H28V11.6002H27.6422C27.2843 11.6075 26.9525 11.6766 26.6469 11.8075C26.3487 11.9312 26.0878 12.1058 25.8642 12.3313C25.6479 12.5496 25.4802 12.8115 25.3609 13.1171C25.2416 13.4153 25.182 13.7463 25.182 14.1101V18.1478Z" fill="black"/>
</svg>
